<?xml version="1.0" encoding="iso-8859-1"?>
<!-- Generator: Adobe Illustrator 19.0.0, SVG Export Plug-In . SVG Version: 6.00 Build 0)  -->
<svg version="1.1" id="Capa_1" xmlns="http://www.w3.org/2000/svg" xmlns:xlink="http://www.w3.org/1999/xlink" x="0px" y="0px"
	 viewBox="0 0 512 512" style="enable-background:new 0 0 512 512;" xml:space="preserve">
<polygon style="fill:#BAC6D0;" points="81.6,334.32 0,283.808 0,114.368 81.6,173.104 "/>
<g>
	<path style="fill:#5CA3D9;" d="M25.504,183.104c-3.776,5.504-9.92,1.712-13.696-8.48c-3.776-10.192-3.776-22.928,0-28.448
		c3.776-5.504,9.92-1.712,13.696,8.48C29.28,164.848,29.28,177.584,25.504,183.104z"/>
	<path style="fill:#5CA3D9;" d="M47.648,242.8c-3.776,5.504-9.92,1.712-13.696-8.48c-3.776-10.192-3.776-22.928,0-28.448
		c3.776-5.504,9.92-1.712,13.696,8.48C51.424,224.56,51.424,237.296,47.648,242.8z"/>
	<path style="fill:#5CA3D9;" d="M69.808,302.512c-3.776,5.504-9.92,1.712-13.696-8.48c-3.776-10.192-3.776-22.928,0-28.432
		s9.92-1.712,13.696,8.48S73.584,297.008,69.808,302.512z"/>
</g>
<polygon style="fill:#CBD6E0;" points="235.12,293.152 81.6,335.248 81.6,173.104 235.12,131.008 "/>
<g>
	<path style="fill:#3E4347;" d="M125.264,274.32c0,8.64-6.624,17.36-14.816,19.488s-14.816-3.152-14.816-11.792
		c0-8.64,6.624-17.36,14.816-19.488S125.264,265.68,125.264,274.32z"/>
	<path style="fill:#3E4347;" d="M173.168,261.872c0,8.64-6.624,17.36-14.816,19.488c-8.176,2.128-14.816-3.152-14.816-11.792
		c0-8.64,6.624-17.36,14.816-19.488S173.168,253.232,173.168,261.872z"/>
	<path style="fill:#3E4347;" d="M125.264,211.36c0,8.64-6.624,17.36-14.816,19.488c-8.176,2.128-14.816-3.152-14.816-11.792
		c0-8.64,6.624-17.36,14.816-19.488C118.64,197.44,125.264,202.72,125.264,211.36z"/>
	<path style="fill:#3E4347;" d="M173.168,198.912c0,8.64-6.624,17.36-14.816,19.488c-8.176,2.128-14.816-3.152-14.816-11.792
		c0-8.64,6.624-17.36,14.816-19.488C166.544,184.992,173.168,190.272,173.168,198.912z"/>
	<path style="fill:#3E4347;" d="M221.072,249.424c0,8.64-6.624,17.36-14.816,19.488s-14.816-3.152-14.816-11.792
		s6.624-17.36,14.816-19.488C214.448,235.504,221.072,240.784,221.072,249.424z"/>
	<path style="fill:#3E4347;" d="M221.072,186.464c0,8.64-6.624,17.36-14.816,19.488c-8.192,2.128-14.816-3.152-14.816-11.792
		c0-8.64,6.624-17.36,14.816-19.488C214.448,172.544,221.072,177.824,221.072,186.464z"/>
</g>
<polygon style="fill:#DAE5EF;" points="235.12,130.96 81.6,174.208 0,114.368 143.552,72.976 "/>
<ellipse style="fill:#E14B4B;" cx="110.448" cy="123.584" rx="28.016" ry="14.512"/>
<polygon style="fill:#DAE5EF;" points="384.48,170.464 475.12,202 512,367.36 419.568,327.808 "/>
<g>
	<path style="fill:#3E4347;" d="M467.808,298.736c2.496-6.208,9.296-3.84,15.216,5.296c5.904,9.12,8.688,21.552,6.192,27.76
		s-9.296,3.84-15.216-5.296S465.328,304.944,467.808,298.736z"/>
	<path style="fill:#3E4347;" d="M410.352,206.064c2.496-6.208,9.296-3.84,15.216,5.296c5.904,9.12,8.688,21.552,6.192,27.76
		c-2.496,6.208-9.296,3.84-15.216-5.296C410.64,224.704,407.872,212.272,410.352,206.064z"/>
</g>
<polygon style="fill:#CBD6E0;" points="243.6,244.064 384.272,169.552 419.568,327.808 278.896,402.32 "/>
<g>
	<path style="fill:#8CC63E;" d="M354.912,238.528c-1.888-8.432,2.688-18.384,10.208-22.24c7.52-3.856,15.136-0.144,17.024,8.288
		c1.888,8.432-2.688,18.384-10.208,22.24C364.416,250.672,356.8,246.96,354.912,238.528z"/>
	<path style="fill:#8CC63E;" d="M320.032,292.912c-1.888-8.432,2.688-18.384,10.208-22.24c7.52-3.856,15.136-0.144,17.024,8.288
		s-2.688,18.384-10.208,22.24C329.536,305.056,321.92,301.344,320.032,292.912z"/>
	<path style="fill:#8CC63E;" d="M368.624,299.984c-1.888-8.432,2.688-18.384,10.208-22.24c7.52-3.856,15.136-0.144,17.024,8.288
		s-2.688,18.384-10.208,22.24C378.128,312.128,370.512,308.416,368.624,299.984z"/>
	<path style="fill:#8CC63E;" d="M266.816,283.68c-1.888-8.432,2.688-18.4,10.208-22.24c7.52-3.856,15.136-0.144,17.024,8.288
		s-2.688,18.384-10.208,22.24C276.32,295.824,268.704,292.112,266.816,283.68z"/>
	<path style="fill:#8CC63E;" d="M280.528,345.136c-1.888-8.432,2.688-18.4,10.208-22.24c7.52-3.856,15.136-0.144,17.024,8.288
		s-2.688,18.384-10.208,22.24C290.032,357.28,282.4,353.568,280.528,345.136z"/>
</g>
<polygon style="fill:#BAC6D0;" points="278.896,402.352 419.328,326.736 512,367.36 380.896,439.024 "/>
<ellipse transform="matrix(-0.2177 -0.976 0.976 -0.2177 116.6662 858.1311)" style="fill:#E14B4B;" cx="402.238" cy="382.31" rx="14.512" ry="28.016"/>
<g>
</g>
<g>
</g>
<g>
</g>
<g>
</g>
<g>
</g>
<g>
</g>
<g>
</g>
<g>
</g>
<g>
</g>
<g>
</g>
<g>
</g>
<g>
</g>
<g>
</g>
<g>
</g>
<g>
</g>
</svg>
